<?xml version="1.0" encoding="UTF-8" standalone="no"?>
<!DOCTYPE svg PUBLIC "-//W3C//DTD SVG 1.1//EN" "http://www.w3.org/Graphics/SVG/1.1/DTD/svg11.dtd">
<svg width="100%" height="100%" viewBox="0 0 24 24" version="1.1" xmlns="http://www.w3.org/2000/svg" xmlns:xlink="http://www.w3.org/1999/xlink" xml:space="preserve" xmlns:serif="http://www.serif.com/" style="fill-rule:evenodd;clip-rule:evenodd;stroke-linejoin:round;stroke-miterlimit:1.41421;">
    <g id="Forma-1" serif:id="Forma 1" transform="matrix(1,0,0,1,-18,-392)">
        <path d="M39,404.31L39,413L30.31,413L30.31,404.31L39,404.31ZM29.69,404.31L29.69,413L21,413L21,404.31L29.69,404.31ZM23.354,407.542C23.112,407.3 23.112,406.907 23.354,406.665C23.596,406.422 23.99,406.422 24.232,406.665L25.345,407.777L26.458,406.665C26.7,406.422 27.093,406.422 27.335,406.665C27.578,406.907 27.578,407.3 27.335,407.542L26.222,408.655L27.335,409.768C27.578,410.01 27.578,410.403 27.335,410.646C27.214,410.767 27.055,410.828 26.897,410.828C26.738,410.828 26.579,410.767 26.458,410.646L25.345,409.533L24.232,410.646C24.111,410.767 23.952,410.828 23.793,410.828C23.634,410.828 23.475,410.767 23.354,410.646C23.112,410.403 23.112,410.01 23.354,409.768L24.467,408.655L23.354,407.542ZM36.517,410.207C36.864,410.202 37.138,409.926 37.138,409.586C37.138,409.244 36.86,408.965 36.517,408.965L32.793,408.965C32.45,408.965 32.172,409.244 32.172,409.586C32.172,409.929 32.45,410.207 32.793,410.207L36.517,410.207ZM36.517,408.345C36.864,408.34 37.138,408.064 37.138,407.724C37.138,407.381 36.86,407.103 36.517,407.103L32.793,407.103C32.45,407.103 32.172,407.381 32.172,407.724C32.172,408.067 32.45,408.345 32.793,408.345L36.517,408.345ZM29.69,395L29.69,403.689L21,403.689L21,395L29.69,395ZM39,395L39,403.689L30.31,403.689L30.31,395L39,395ZM25.965,398.724L25.965,397.483C25.965,397.14 25.687,396.862 25.345,396.862C25.002,396.862 24.724,397.14 24.724,397.483L24.724,398.724L23.483,398.724C23.14,398.724 22.862,399.002 22.862,399.345C22.862,399.687 23.14,399.965 23.483,399.965L24.724,399.965L24.724,401.207C24.724,401.549 25.002,401.827 25.345,401.827C25.687,401.827 25.965,401.549 25.965,401.207L25.965,399.965L27.207,399.965C27.554,399.961 27.828,399.685 27.828,399.345C27.828,399.005 27.554,398.728 27.207,398.724L25.965,398.724ZM36.517,399.965C36.864,399.961 37.138,399.685 37.138,399.345C37.138,399.002 36.86,398.724 36.517,398.724L32.793,398.724C32.45,398.724 32.172,399.002 32.172,399.345C32.172,399.687 32.45,399.965 32.793,399.965L36.517,399.965Z" style="fill:rgb(105,107,111);"/>
    </g>
</svg>
