<?xml version="1.0" encoding="UTF-8" standalone="no"?>
<!DOCTYPE svg PUBLIC "-//W3C//DTD SVG 1.1//EN" "http://www.w3.org/Graphics/SVG/1.1/DTD/svg11.dtd">
<svg width="100%" height="100%" viewBox="0 0 24 24" version="1.1" xmlns="http://www.w3.org/2000/svg" xmlns:xlink="http://www.w3.org/1999/xlink" xml:space="preserve" xmlns:serif="http://www.serif.com/" style="fill-rule:evenodd;clip-rule:evenodd;stroke-linejoin:round;stroke-miterlimit:1.41421;">
    <g id="Forma-1" serif:id="Forma 1" transform="matrix(1,0,0,1,-1413,-267.999)">
        <path d="M1426.59,271.998C1426.86,271.998 1427.12,272.088 1427.38,272.269C1427.63,272.449 1427.81,272.668 1427.91,272.925L1428.61,274.665L1431.68,274.665C1431.78,274.665 1431.85,274.696 1431.91,274.759C1431.97,274.821 1432,274.901 1432,274.999L1432,275.665C1432,275.762 1431.97,275.842 1431.91,275.905C1431.85,275.967 1431.78,275.998 1431.68,275.998L1430.73,275.998L1430.73,285.875C1430.73,286.451 1430.57,286.95 1430.26,287.37C1429.95,287.79 1429.58,288 1429.14,288L1420.86,288C1420.42,288 1420.05,287.797 1419.74,287.391C1419.43,286.984 1419.27,286.493 1419.27,285.916L1419.27,275.998L1418.32,275.998C1418.22,275.998 1418.15,275.967 1418.09,275.905C1418.03,275.842 1418,275.762 1418,275.665L1418,274.999C1418,274.901 1418.03,274.821 1418.09,274.759C1418.15,274.697 1418.22,274.665 1418.32,274.665L1421.39,274.665L1422.09,272.925C1422.18,272.668 1422.36,272.449 1422.62,272.269C1422.88,272.088 1423.14,271.998 1423.41,271.998L1426.59,271.998ZM1429.14,286.667C1429.16,286.666 1429.19,286.636 1429.24,286.578C1429.29,286.519 1429.34,286.425 1429.39,286.297C1429.43,286.168 1429.45,286.028 1429.45,285.875L1429.45,275.998L1420.54,275.998L1420.54,285.875C1420.54,286.028 1420.57,286.168 1420.61,286.297C1420.66,286.425 1420.71,286.519 1420.76,286.578C1420.81,286.637 1420.84,286.667 1420.86,286.667L1429.14,286.667ZM1422.77,277.999C1422.87,277.999 1422.94,278.03 1423,278.092C1423.06,278.155 1423.09,278.235 1423.09,278.332L1423.09,284.333C1423.09,284.43 1423.06,284.51 1423,284.573C1422.94,284.635 1422.87,284.666 1422.77,284.666L1422.13,284.666C1422.04,284.666 1421.97,284.635 1421.91,284.573C1421.85,284.51 1421.82,284.43 1421.82,284.333L1421.82,278.332C1421.82,278.235 1421.85,278.155 1421.91,278.092C1421.97,278.03 1422.04,277.999 1422.13,277.999L1422.77,277.999ZM1425.32,277.999C1425.41,277.999 1425.49,278.03 1425.55,278.092C1425.61,278.155 1425.64,278.235 1425.64,278.332L1425.64,284.333C1425.64,284.43 1425.61,284.51 1425.55,284.573C1425.49,284.635 1425.41,284.666 1425.32,284.666L1424.68,284.666C1424.59,284.666 1424.51,284.635 1424.45,284.573C1424.39,284.51 1424.36,284.43 1424.36,284.333L1424.36,278.332C1424.36,278.235 1424.39,278.155 1424.45,278.092C1424.51,278.03 1424.59,277.999 1424.68,277.999L1425.32,277.999ZM1427.86,277.999C1427.96,277.999 1428.03,278.03 1428.09,278.092C1428.15,278.155 1428.18,278.235 1428.18,278.332L1428.18,284.333C1428.18,284.43 1428.15,284.51 1428.09,284.573C1428.03,284.635 1427.96,284.666 1427.86,284.666L1427.23,284.666C1427.13,284.666 1427.06,284.635 1427,284.573C1426.94,284.51 1426.91,284.43 1426.91,284.333L1426.91,278.332C1426.91,278.235 1426.94,278.155 1427,278.092C1427.06,278.03 1427.13,277.999 1427.23,277.999L1427.86,277.999ZM1427.23,274.665L1426.75,273.446C1426.7,273.384 1426.65,273.345 1426.58,273.331L1423.43,273.331C1423.36,273.345 1423.31,273.384 1423.26,273.446L1422.77,274.665L1427.23,274.665Z" style="fill:rgb(143,155,167);"/>
    </g>
</svg>
