<?xml version="1.0" encoding="UTF-8" standalone="no"?>
<!DOCTYPE svg PUBLIC "-//W3C//DTD SVG 1.1//EN" "http://www.w3.org/Graphics/SVG/1.1/DTD/svg11.dtd">
<svg width="100%" height="100%" viewBox="0 0 11 9" version="1.1" xmlns="http://www.w3.org/2000/svg" xmlns:xlink="http://www.w3.org/1999/xlink" xml:space="preserve" xmlns:serif="http://www.serif.com/" style="fill-rule:evenodd;clip-rule:evenodd;stroke-linejoin:round;stroke-miterlimit:1.41421;">
    <g transform="matrix(1,0,0,1,-323.129,-1157.66)">
        <path id="_-" serif:id="" d="M333.646,1158.79L332.706,1157.85C332.577,1157.72 332.421,1157.66 332.236,1157.66C332.052,1157.66 331.895,1157.72 331.767,1157.85L327.234,1162.39L325.202,1160.35C325.073,1160.22 324.916,1160.16 324.732,1160.16C324.548,1160.16 324.391,1160.22 324.262,1160.35L323.323,1161.29C323.194,1161.42 323.129,1161.58 323.129,1161.76C323.129,1161.95 323.194,1162.1 323.323,1162.23L325.824,1164.73L326.764,1165.67C326.893,1165.8 327.049,1165.87 327.234,1165.87C327.418,1165.87 327.574,1165.8 327.704,1165.67L328.643,1164.73L333.646,1159.73C333.775,1159.6 333.84,1159.45 333.84,1159.26C333.84,1159.08 333.775,1158.92 333.646,1158.79L333.646,1158.79Z" style="fill:white;fill-rule:nonzero;"/>
    </g>
</svg>
