<?xml version="1.0" encoding="UTF-8" standalone="no"?>
<!DOCTYPE svg PUBLIC "-//W3C//DTD SVG 1.1//EN" "http://www.w3.org/Graphics/SVG/1.1/DTD/svg11.dtd">
<svg width="100%" height="100%" viewBox="0 0 16 16" version="1.1" xmlns="http://www.w3.org/2000/svg" xmlns:xlink="http://www.w3.org/1999/xlink" xml:space="preserve" xmlns:serif="http://www.serif.com/" style="fill-rule:evenodd;clip-rule:evenodd;stroke-linejoin:round;stroke-miterlimit:1.41421;">
    <g id="Forma-1" serif:id="Forma 1" transform="matrix(1,0,0,1,-862.481,-1152.49)">
        <path d="M863.113,1167.86C863.201,1167.94 863.317,1167.99 863.433,1167.99C863.549,1167.99 863.665,1167.94 863.753,1167.86L870.481,1161.13L877.209,1167.86C877.297,1167.94 877.413,1167.99 877.529,1167.99C877.645,1167.99 877.76,1167.94 877.849,1167.86C878.026,1167.68 878.026,1167.39 877.849,1167.22L871.121,1160.49L877.849,1153.75C878.026,1153.58 878.026,1153.29 877.849,1153.11C877.672,1152.94 877.385,1152.94 877.209,1153.11L870.481,1159.84L863.753,1153.11C863.576,1152.94 863.29,1152.94 863.113,1153.11C862.936,1153.29 862.936,1153.58 863.113,1153.75L869.841,1160.49L863.113,1167.22C862.936,1167.39 862.936,1167.68 863.113,1167.86Z" style="fill:rgb(92,92,92);fill-rule:nonzero;"/>
    </g>
</svg>
