<?xml version="1.0" encoding="UTF-8" standalone="no"?>
<!DOCTYPE svg PUBLIC "-//W3C//DTD SVG 1.1//EN" "http://www.w3.org/Graphics/SVG/1.1/DTD/svg11.dtd">
<svg width="100%" height="100%" viewBox="0 0 24 24" version="1.1" xmlns="http://www.w3.org/2000/svg" xmlns:xlink="http://www.w3.org/1999/xlink" xml:space="preserve" xmlns:serif="http://www.serif.com/" style="fill-rule:evenodd;clip-rule:evenodd;stroke-linejoin:round;stroke-miterlimit:1.41421;">
    <g id="Forma-1" serif:id="Forma 1" transform="matrix(0.986385,0,0,0.997758,-17.0238,-267.516)">
        <path d="M37.353,286.248L31.566,280.499C31.512,280.445 31.454,280.397 31.394,280.352L32.419,279.28C32.471,279.227 32.521,279.172 32.567,279.115C33.927,279.625 35.524,279.339 36.618,278.252C37.415,277.459 37.818,276.363 37.721,275.244C37.71,275.118 37.626,275.008 37.505,274.965C37.385,274.921 37.25,274.951 37.16,275.041L35.305,276.883L33.427,276.413L32.895,274.488L34.749,272.646C34.84,272.556 34.87,272.422 34.826,272.303C34.782,272.183 34.672,272.1 34.545,272.088C33.418,271.992 32.315,272.392 31.517,273.184C30.424,274.27 30.135,275.856 30.647,277.207C30.592,277.254 30.536,277.303 30.482,277.357L28.973,278.796L26.203,276.044C26.168,276.01 26.131,275.979 26.093,275.951C26.126,275.894 26.157,275.836 26.187,275.775C26.772,275.887 27.842,274.755 28.75,273.853L26.104,271.224C24.92,272.4 24.056,273.189 24.168,273.77C23.898,273.901 23.657,274.062 23.485,274.232L23.112,274.603C22.87,274.843 22.724,275.143 22.672,275.455C22.636,275.496 22.599,275.539 22.563,275.585L22.424,275.759C22.42,275.763 22.408,275.78 22.405,275.785L22.279,275.96C22.2,276.064 22.131,276.177 22.065,276.287C22.04,276.328 22.015,276.368 21.99,276.409C21.986,276.416 21.982,276.423 21.978,276.43L21.922,276.534C21.854,276.66 21.784,276.791 21.724,276.934L21.714,276.957C21.644,277.124 21.57,277.297 21.519,277.481L21.494,277.56C21.474,277.625 21.453,277.69 21.434,277.768L21.383,278.021C21.345,278.18 21.332,278.336 21.32,278.474L21.313,278.565C21.294,278.708 21.299,278.843 21.305,278.962C21.306,279.002 21.308,279.042 21.309,279.094C21.311,279.116 21.311,279.138 21.311,279.159C21.313,279.212 21.314,279.273 21.324,279.337L21.357,279.542C21.364,279.582 21.37,279.62 21.375,279.657C21.387,279.741 21.4,279.827 21.425,279.909L21.56,280.375C21.602,280.517 21.738,280.611 21.886,280.601C21.965,280.596 22.035,280.561 22.088,280.509C22.135,280.463 22.167,280.401 22.177,280.332L22.247,279.858C22.253,279.82 22.269,279.765 22.286,279.707C22.298,279.666 22.309,279.625 22.318,279.59L22.368,279.412C22.374,279.389 22.386,279.365 22.397,279.341C22.407,279.319 22.416,279.296 22.425,279.274C22.442,279.236 22.458,279.198 22.473,279.16C22.504,279.084 22.533,279.013 22.577,278.943C22.597,278.91 22.615,278.878 22.633,278.846C22.679,278.763 22.723,278.686 22.775,278.621C22.779,278.618 22.782,278.613 22.785,278.609L22.903,278.447C22.927,278.417 22.954,278.388 22.98,278.359C22.999,278.339 23.018,278.319 23.042,278.292C23.111,278.209 23.193,278.136 23.271,278.065L23.314,278.027C23.372,277.974 23.44,277.923 23.511,277.869C23.54,277.848 23.568,277.826 23.596,277.805C23.632,277.782 23.667,277.759 23.701,277.736C23.765,277.693 23.821,277.656 23.885,277.623L24.024,277.544L24.166,277.475C24.215,277.45 24.263,277.43 24.308,277.412C24.335,277.401 24.361,277.391 24.385,277.38C24.41,277.372 24.434,277.362 24.456,277.354C24.487,277.343 24.513,277.333 24.548,277.324L24.586,277.315C24.628,277.382 24.677,277.445 24.735,277.503L27.475,280.226L21.625,285.808C21.623,285.81 21.621,285.813 21.619,285.814C20.891,286.538 20.772,287.597 21.5,288.32C22.228,289.044 23.227,288.858 23.955,288.135C23.958,288.132 23.961,288.129 23.963,288.126L29.124,282.727C29.154,282.763 29.184,282.798 29.218,282.832L35.004,288.581C35.653,289.225 36.705,289.225 37.353,288.581C38.001,287.937 38.001,286.892 37.353,286.248ZM23.199,287.539C22.931,287.806 22.497,287.806 22.228,287.539C21.96,287.272 21.96,286.841 22.228,286.574C22.496,286.308 22.931,286.308 23.199,286.574C23.467,286.841 23.467,287.272 23.199,287.539Z" style="fill:rgb(105,107,111);fill-rule:nonzero;"/>
    </g>
</svg>
