<?xml version="1.0" encoding="UTF-8" standalone="no"?>
<!DOCTYPE svg PUBLIC "-//W3C//DTD SVG 1.1//EN" "http://www.w3.org/Graphics/SVG/1.1/DTD/svg11.dtd">
<svg width="100%" height="100%" viewBox="0 0 24 24" version="1.1" xmlns="http://www.w3.org/2000/svg" xmlns:xlink="http://www.w3.org/1999/xlink" xml:space="preserve" xmlns:serif="http://www.serif.com/" style="fill-rule:evenodd;clip-rule:evenodd;stroke-linejoin:round;stroke-miterlimit:1.41421;">
    <g id="_-" serif:id="" transform="matrix(1.00183,0,0,1.07749,-16.257,-221.862)">
        <path d="M34.222,218.495L28.205,213.536L22.189,218.495C22.189,218.502 22.187,218.513 22.184,218.527C22.18,218.541 22.179,218.551 22.179,218.558L22.179,223.58C22.179,223.762 22.245,223.919 22.377,224.051C22.51,224.184 22.667,224.25 22.848,224.25L26.866,224.25L26.866,220.232L29.545,220.232L29.545,224.25L33.562,224.25C33.744,224.25 33.901,224.184 34.033,224.051C34.166,223.919 34.232,223.762 34.232,223.58L34.232,218.558C34.232,218.53 34.228,218.509 34.222,218.495ZM36.639,217.59C36.632,217.496 36.593,217.421 36.524,217.365L34.232,215.461L34.232,211.192C34.232,211.094 34.201,211.014 34.138,210.951C34.075,210.889 33.995,210.857 33.897,210.857L31.888,210.857C31.791,210.857 31.71,210.889 31.648,210.951C31.585,211.014 31.553,211.094 31.553,211.192L31.553,213.232L29,211.098C28.777,210.916 28.512,210.826 28.205,210.826C27.898,210.826 27.633,210.916 27.41,211.098L19.887,217.365C19.817,217.421 19.779,217.496 19.772,217.59C19.765,217.684 19.789,217.766 19.845,217.836L20.494,218.61C20.55,218.673 20.623,218.712 20.714,218.725C20.797,218.732 20.881,218.708 20.965,218.652L28.205,212.615L35.446,218.652C35.502,218.701 35.575,218.725 35.665,218.725L35.697,218.725C35.787,218.712 35.861,218.673 35.917,218.61L36.565,217.836C36.621,217.766 36.645,217.684 36.639,217.59Z" style="fill:rgb(106,108,111);fill-rule:nonzero;"/>
    </g>
</svg>
