<?xml version="1.0" encoding="UTF-8" standalone="no"?>
<!DOCTYPE svg PUBLIC "-//W3C//DTD SVG 1.1//EN" "http://www.w3.org/Graphics/SVG/1.1/DTD/svg11.dtd">
<svg width="100%" height="100%" viewBox="0 0 24 24" version="1.1" xmlns="http://www.w3.org/2000/svg" xmlns:xlink="http://www.w3.org/1999/xlink" xml:space="preserve" xmlns:serif="http://www.serif.com/" style="fill-rule:evenodd;clip-rule:evenodd;stroke-linejoin:round;stroke-miterlimit:1.41421;">
    <g transform="matrix(0.999243,0,0,1.00236,-1379.55,-268.526)">
        <g transform="matrix(1,0,0,1,0.191515,-0.274817)">
            <path d="M1395.94,272.182L1389.83,278.339C1389.71,278.452 1389.65,278.605 1389.64,278.769L1389.6,281.914C1389.6,282.079 1389.66,282.252 1389.79,282.365C1389.9,282.478 1390.06,282.57 1390.21,282.57L1390.22,282.57L1393.25,282.508C1393.41,282.508 1393.56,282.416 1393.67,282.303L1399.84,276.096C1400.08,275.86 1400.08,275.471 1399.84,275.225L1396.82,272.182C1396.57,271.947 1396.18,271.947 1395.94,272.182ZM1392.97,281.259L1390.83,281.289L1390.86,279.035L1393.98,275.901L1396.13,278.093L1392.97,281.259ZM1396.99,277.212L1394.84,275.02L1396.37,273.483L1398.53,275.655L1396.99,277.212Z" style="fill:rgb(143,155,167);"/>
        </g>
        <path d="M1391.72,273.965C1392.06,273.965 1392.33,273.688 1392.33,273.35C1392.33,273.012 1392.06,272.736 1391.72,272.736L1385.61,272.736C1385.28,272.736 1385,273.012 1385,273.35L1385,287.385C1385,287.723 1385.28,288 1385.61,288L1397.01,288C1397.35,288 1397.62,287.723 1397.62,287.385L1397.62,281.648C1397.62,281.31 1397.35,281.033 1397.01,281.033C1396.68,281.033 1396.4,281.31 1396.4,281.648L1396.4,286.77L1386.22,286.77L1386.22,273.965L1391.72,273.965Z" style="fill:rgb(143,155,167);"/>
    </g>
</svg>
