<?xml version="1.0" encoding="UTF-8" standalone="no"?>
<!DOCTYPE svg PUBLIC "-//W3C//DTD SVG 1.1//EN" "http://www.w3.org/Graphics/SVG/1.1/DTD/svg11.dtd">
<svg width="100%" height="100%" viewBox="0 0 24 24" version="1.1" xmlns="http://www.w3.org/2000/svg" xmlns:xlink="http://www.w3.org/1999/xlink" xml:space="preserve" xmlns:serif="http://www.serif.com/" style="fill-rule:evenodd;clip-rule:evenodd;stroke-linejoin:round;stroke-miterlimit:1.41421;">
    <g id="_-" serif:id="" transform="matrix(0.99842,0,0,0.997266,-16.4764,-328.152)">
        <path d="M35.55,339.646C33.619,340.953 32.154,341.968 31.153,342.692C30.817,342.94 30.545,343.133 30.336,343.271C30.127,343.409 29.849,343.551 29.501,343.695C29.154,343.839 28.83,343.911 28.53,343.911L28.521,343.911L28.512,343.911C28.212,343.911 27.888,343.839 27.541,343.695C27.194,343.551 26.915,343.409 26.706,343.271C26.497,343.133 26.225,342.94 25.89,342.692C25.095,342.11 23.632,341.094 21.501,339.646C21.165,339.422 20.868,339.166 20.609,338.878L20.609,345.889C20.609,346.278 20.747,346.61 21.024,346.887C21.301,347.164 21.633,347.302 22.022,347.302L35.021,347.302C35.409,347.302 35.742,347.164 36.019,346.887C36.295,346.61 36.434,346.278 36.434,345.889L36.434,338.878C36.18,339.16 35.886,339.416 35.55,339.646ZM36.014,335.283C35.734,335.007 35.403,334.868 35.021,334.868L22.022,334.868C21.568,334.868 21.22,335.022 20.975,335.328C20.731,335.634 20.609,336.016 20.609,336.476C20.609,336.847 20.771,337.248 21.095,337.681C21.418,338.114 21.763,338.454 22.128,338.701C22.328,338.842 22.931,339.262 23.938,339.959C24.945,340.657 25.716,341.194 26.252,341.571C26.31,341.612 26.436,341.702 26.627,341.84C26.818,341.979 26.977,342.091 27.104,342.176C27.23,342.261 27.383,342.357 27.563,342.463C27.743,342.569 27.912,342.648 28.071,342.701C28.23,342.754 28.377,342.781 28.512,342.781L28.53,342.781C28.665,342.781 28.813,342.754 28.972,342.701C29.131,342.648 29.3,342.569 29.479,342.463C29.659,342.357 29.812,342.261 29.939,342.176C30.065,342.091 30.224,341.979 30.415,341.84C30.607,341.702 30.732,341.612 30.791,341.571C31.332,341.194 32.71,340.238 34.923,338.701C35.353,338.401 35.712,338.039 36.001,337.615C36.289,337.191 36.434,336.746 36.434,336.281C36.434,335.893 36.294,335.56 36.014,335.283Z" style="fill:rgb(106,108,111);fill-rule:nonzero;"/>
    </g>
</svg>
