<?xml version="1.0" encoding="UTF-8" standalone="no"?>
<!DOCTYPE svg PUBLIC "-//W3C//DTD SVG 1.1//EN" "http://www.w3.org/Graphics/SVG/1.1/DTD/svg11.dtd">
<svg width="100%" height="100%" viewBox="0 0 20 20" version="1.1" xmlns="http://www.w3.org/2000/svg" xmlns:xlink="http://www.w3.org/1999/xlink" xml:space="preserve" xmlns:serif="http://www.serif.com/" style="fill-rule:evenodd;clip-rule:evenodd;stroke-linejoin:round;stroke-miterlimit:1.41421;">
    <g id="Forma-1" serif:id="Forma 1" transform="matrix(1,0,0,1,-567.499,-1811.06)">
        <path d="M583.856,1826.82L583.856,1823.41C583.856,1823.09 584.111,1822.83 584.427,1822.83C584.743,1822.83 584.998,1823.09 584.998,1823.41L584.998,1827.16C584.998,1827.21 584.983,1827.25 584.974,1827.29C584.984,1827.33 584.998,1827.37 584.998,1827.41C584.998,1827.74 584.743,1828 584.427,1828L570.572,1828C570.256,1828 570,1827.74 570,1827.41C570,1827.37 570.016,1827.33 570.025,1827.29C570.016,1827.25 570,1827.21 570,1827.16L570,1823.41C570,1823.09 570.256,1822.83 570.572,1822.83C570.888,1822.83 571.143,1823.09 571.143,1823.41L571.143,1826.82L583.856,1826.82ZM577.535,1825.24C577.851,1825.24 578.107,1824.98 578.107,1824.65L578.107,1816.06L580.595,1818.62C580.707,1818.74 580.853,1818.8 580.999,1818.8C581.145,1818.8 581.292,1818.74 581.403,1818.62C581.626,1818.39 581.626,1818.02 581.403,1817.79L577.939,1814.23C577.716,1814 577.355,1814 577.131,1814.23L573.668,1817.79C573.445,1818.02 573.445,1818.39 573.668,1818.62C573.779,1818.74 573.926,1818.8 574.072,1818.8C574.218,1818.8 574.364,1818.74 574.476,1818.62L576.964,1816.06L576.964,1824.65C576.964,1824.98 577.219,1825.24 577.535,1825.24Z" style="fill:white;"/>
    </g>
</svg>
