<?xml version="1.0" encoding="UTF-8" standalone="no"?>
<!DOCTYPE svg PUBLIC "-//W3C//DTD SVG 1.1//EN" "http://www.w3.org/Graphics/SVG/1.1/DTD/svg11.dtd">
<svg width="100%" height="100%" viewBox="0 0 41 29" version="1.1" xmlns="http://www.w3.org/2000/svg" xmlns:xlink="http://www.w3.org/1999/xlink" xml:space="preserve" xmlns:serif="http://www.serif.com/" style="fill-rule:evenodd;clip-rule:evenodd;stroke-linejoin:round;stroke-miterlimit:1.41421;">
    <g id="_-" serif:id="" transform="matrix(1,0,0,1,-24.633,-26.581)">
        <path d="M37.088,41.081L43.143,47.217L39.099,51.343L29.043,41.081L39.099,30.819L40.608,32.358L42.619,30.306L39.099,26.714L25.021,41.081L39.099,55.448L47.144,47.238L39.099,39.029L37.088,41.081ZM43.122,34.924L51.166,43.133L53.178,41.081L47.123,34.945L51.166,30.819L61.222,41.081L51.166,51.343L49.658,49.804L47.647,51.856L51.166,55.448L65.245,41.081L51.166,26.714L43.122,34.924Z" style="fill:rgb(63,81,181);fill-rule:nonzero;"/>
    </g>
</svg>
