<?xml version="1.0" encoding="UTF-8" standalone="no"?>
<!DOCTYPE svg PUBLIC "-//W3C//DTD SVG 1.1//EN" "http://www.w3.org/Graphics/SVG/1.1/DTD/svg11.dtd">
<svg width="100%" height="100%" viewBox="0 0 25 20" version="1.1" xmlns="http://www.w3.org/2000/svg" xmlns:xlink="http://www.w3.org/1999/xlink" xml:space="preserve" xmlns:serif="http://www.serif.com/" style="fill-rule:evenodd;clip-rule:evenodd;stroke-linejoin:round;stroke-miterlimit:1.41421;">
    <g transform="matrix(1,0,0,1,-1371,-32.1429)">
        <path id="_-" serif:id="" d="M1394.61,39.69C1391.55,41.755 1389.24,43.359 1387.66,44.503C1387.13,44.894 1386.7,45.199 1386.37,45.417C1386.04,45.636 1385.6,45.859 1385.05,46.087C1384.5,46.315 1383.99,46.428 1383.51,46.428L1383.5,46.428L1383.49,46.428C1383.01,46.428 1382.5,46.315 1381.95,46.087C1381.4,45.859 1380.96,45.636 1380.63,45.417C1380.3,45.199 1379.87,44.894 1379.34,44.503C1378.09,43.583 1375.78,41.978 1372.41,39.69C1371.88,39.337 1371.41,38.932 1371,38.476L1371,49.553C1371,50.167 1371.22,50.693 1371.66,51.13C1372.09,51.567 1372.62,51.786 1373.23,51.786L1393.77,51.786C1394.38,51.786 1394.91,51.567 1395.34,51.13C1395.78,50.693 1396,50.167 1396,49.553L1396,38.476C1395.6,38.923 1395.13,39.327 1394.61,39.69L1394.61,39.69ZM1395.34,32.799C1394.89,32.361 1394.37,32.143 1393.77,32.143L1373.23,32.143C1372.52,32.143 1371.96,32.385 1371.58,32.868C1371.19,33.352 1371,33.956 1371,34.682C1371,35.268 1371.26,35.903 1371.77,36.586C1372.28,37.27 1372.82,37.807 1373.4,38.197C1373.72,38.421 1374.67,39.083 1376.26,40.185C1377.85,41.288 1379.07,42.136 1379.91,42.731C1380.01,42.797 1380.2,42.939 1380.51,43.157C1380.81,43.376 1381.06,43.552 1381.26,43.687C1381.46,43.822 1381.7,43.973 1381.99,44.141C1382.27,44.308 1382.54,44.433 1382.79,44.517C1383.04,44.601 1383.27,44.643 1383.49,44.643L1383.51,44.643C1383.73,44.643 1383.96,44.601 1384.21,44.517C1384.46,44.433 1384.73,44.308 1385.01,44.141C1385.3,43.973 1385.54,43.822 1385.74,43.687C1385.94,43.552 1386.19,43.376 1386.49,43.157C1386.79,42.939 1386.99,42.797 1387.09,42.731C1387.94,42.136 1390.12,40.625 1393.61,38.197C1394.29,37.723 1394.86,37.151 1395.32,36.482C1395.77,35.812 1396,35.11 1396,34.375C1396,33.761 1395.78,33.236 1395.34,32.799Z" style="fill:white;fill-rule:nonzero;"/>
    </g>
</svg>
