<svg width="205" height="184" viewBox="0 0 205 184" fill="none" xmlns="http://www.w3.org/2000/svg">
<path fill-rule="evenodd" clip-rule="evenodd" d="M71.6066 0L76.9099 5.3033L88.9099 17.3033L78.3033 27.9099L71.6066 21.2132L21.2132 71.6066L71.6066 122L91.5 102.107L62.3033 72.9099L72.9099 62.3033L107.41 96.8033L112.713 102.107L107.41 107.41L76.9099 137.91L71.6066 143.213L66.3033 137.91L5.3033 76.9099L0 71.6066L5.3033 66.3033L66.3033 5.3033L71.6066 0ZM133.107 143.213L127.803 137.91L115.803 125.91L126.41 115.303L133.107 122L183.5 71.6066L133.107 21.2132L113.213 41.1066L142.41 70.3033L131.803 80.9099L97.3033 46.4099L92 41.1066L97.3033 35.8033L127.803 5.3033L133.107 3.8147e-06L138.41 5.3033L199.41 66.3033L204.713 71.6066L199.41 76.9099L138.41 137.91L133.107 143.213ZM66.0124 166.117V179.607H68.6344V166.117H66.0124ZM79.619 179.607H82.165V173.394C82.165 172.912 82.1206 172.437 82.032 171.969C81.956 171.5 81.8103 171.082 81.595 170.715C81.3796 170.347 81.0756 170.05 80.683 169.822C80.2903 169.594 79.7836 169.48 79.163 169.48C78.289 169.48 77.5036 169.657 76.807 170.012C76.1103 170.366 75.5783 170.86 75.211 171.494V169.651H72.912V179.607H75.458V173.793C75.5466 173.489 75.686 173.21 75.876 172.957C76.066 172.703 76.275 172.488 76.503 172.311C76.7436 172.121 76.997 171.975 77.263 171.874C77.529 171.772 77.7886 171.722 78.042 171.722C78.536 171.722 78.9223 171.905 79.201 172.273C79.4796 172.64 79.619 173.223 79.619 174.021V179.607ZM85.293 172.121H86.604V179.607H89.15V172.121H91.943V179.607H94.489V170.183H89.15V169.48C89.15 169.011 89.283 168.599 89.549 168.245C89.8277 167.89 90.252 167.713 90.822 167.713C91.278 167.713 91.7277 167.801 92.171 167.979C92.6143 168.156 93.0007 168.39 93.33 168.682L94.337 166.782C93.805 166.427 93.235 166.136 92.627 165.908C92.0317 165.667 91.373 165.547 90.651 165.547C90.0177 165.547 89.4477 165.654 88.941 165.87C88.447 166.085 88.0227 166.376 87.668 166.744C87.326 167.098 87.06 167.523 86.87 168.017C86.6927 168.511 86.604 169.03 86.604 169.575V170.183H85.293V172.121ZM105.212 179.607H107.758V173.394C107.758 172.912 107.713 172.437 107.625 171.969C107.549 171.5 107.403 171.082 107.188 170.715C106.972 170.347 106.668 170.05 106.276 169.822C105.883 169.594 105.376 169.48 104.756 169.48C103.882 169.48 103.096 169.657 102.4 170.012C101.703 170.366 101.171 170.86 100.804 171.494V169.651H98.5048V179.607H101.051V173.793C101.139 173.489 101.279 173.21 101.469 172.957C101.659 172.703 101.868 172.488 102.096 172.311C102.336 172.121 102.59 171.975 102.856 171.874C103.122 171.772 103.381 171.722 103.635 171.722C104.129 171.722 104.515 171.905 104.794 172.273C105.072 172.64 105.212 173.223 105.212 174.021V179.607ZM111.682 169.651V179.607H114.228V169.651H111.682ZM111.682 165.737V168.264H114.228V165.737H111.682ZM122.946 179.55C123.44 179.398 123.858 179.246 124.2 179.094L123.687 177.08C123.535 177.143 123.333 177.219 123.079 177.308C122.826 177.396 122.566 177.441 122.3 177.441C122.034 177.441 121.806 177.371 121.616 177.232C121.439 177.08 121.35 176.826 121.35 176.472V171.608H123.44V169.651H121.35V166.421H118.804V169.651H117.493V171.608H118.804V177.327C118.804 177.77 118.874 178.15 119.013 178.467C119.153 178.771 119.336 179.024 119.564 179.227C119.805 179.417 120.077 179.556 120.381 179.645C120.698 179.733 121.034 179.778 121.388 179.778C121.933 179.778 122.452 179.702 122.946 179.55ZM128.072 181.678C127.87 181.652 127.661 181.608 127.445 181.545V183.749C127.673 183.825 127.889 183.875 128.091 183.901C128.307 183.939 128.516 183.958 128.718 183.958C129.58 183.958 130.302 183.736 130.884 183.293C131.467 182.849 131.879 182.279 132.119 181.583L136.299 169.651H133.905L131.511 177.403L128.813 169.651H126.191L130.124 179.607C129.998 180.025 129.877 180.373 129.763 180.652C129.649 180.93 129.535 181.146 129.421 181.298C129.307 181.462 129.181 181.576 129.041 181.64C128.902 181.703 128.75 181.735 128.585 181.735C128.446 181.735 128.275 181.716 128.072 181.678Z" fill="white"/>
</svg>
