<?xml version="1.0" encoding="UTF-8" standalone="no"?>
<!DOCTYPE svg PUBLIC "-//W3C//DTD SVG 1.1//EN" "http://www.w3.org/Graphics/SVG/1.1/DTD/svg11.dtd">
<svg width="100%" height="100%" viewBox="0 0 135 27" version="1.1" xmlns="http://www.w3.org/2000/svg" xmlns:xlink="http://www.w3.org/1999/xlink" xml:space="preserve" xmlns:serif="http://www.serif.com/" style="fill-rule:evenodd;clip-rule:evenodd;stroke-linejoin:round;stroke-miterlimit:1.41421;">
    <g transform="matrix(1,0,0,1,-23.6801,-26.9881)">
        <g id="ŚŚ" transform="matrix(1,0,0,1,74.9429,47.5548)">
            <rect x="1.542" y="-14.792" width="2.875" height="14.792" style="fill:rgb(63,81,181);"/>
            <path d="M19.458,0L16.667,0L16.667,-6.125C16.667,-7 16.514,-7.639 16.208,-8.042C15.903,-8.444 15.479,-8.646 14.937,-8.646C14.66,-8.646 14.375,-8.59 14.083,-8.479C13.792,-8.368 13.517,-8.212 13.26,-8.01C13.003,-7.809 12.771,-7.569 12.562,-7.292C12.354,-7.014 12.201,-6.708 12.104,-6.375L12.104,0L9.312,0L9.312,-10.917L11.833,-10.917L11.833,-8.896C12.236,-9.59 12.819,-10.132 13.583,-10.521C14.347,-10.91 15.208,-11.104 16.167,-11.104C16.847,-11.104 17.403,-10.979 17.833,-10.729C18.264,-10.479 18.597,-10.153 18.833,-9.75C19.069,-9.347 19.233,-8.889 19.323,-8.375C19.413,-7.861 19.458,-7.34 19.458,-6.812L19.458,0Z" style="fill:rgb(63,81,181);fill-rule:nonzero;"/>
            <path d="M24.542,0L24.542,-8.208L23.104,-8.208L23.104,-10.333L24.542,-10.333L24.542,-11C24.542,-12.361 24.868,-13.437 25.521,-14.229C26.174,-15.021 27.062,-15.417 28.187,-15.417C29.076,-15.417 29.972,-15.201 30.875,-14.771L30.312,-12.667C30.104,-12.778 29.858,-12.872 29.573,-12.948C29.288,-13.024 29.028,-13.062 28.792,-13.062C27.819,-13.062 27.333,-12.41 27.333,-11.104L27.333,-10.333L30,-10.333L30,-8.208L27.333,-8.208L27.333,0L24.542,0Z" style="fill:rgb(63,81,181);fill-rule:nonzero;"/>
            <path d="M33.667,0L33.667,-10.917L36.458,-10.917L36.458,0L33.667,0ZM33.667,-12.437L33.667,-15.208L36.458,-15.208L36.458,-12.437L33.667,-12.437Z" style="fill:rgb(63,81,181);fill-rule:nonzero;"/>
            <path d="M51.208,0L48.417,0L48.417,-6.125C48.417,-7 48.264,-7.639 47.958,-8.042C47.653,-8.444 47.229,-8.646 46.687,-8.646C46.41,-8.646 46.125,-8.59 45.833,-8.479C45.542,-8.368 45.267,-8.212 45.01,-8.01C44.753,-7.809 44.521,-7.569 44.312,-7.292C44.104,-7.014 43.951,-6.708 43.854,-6.375L43.854,0L41.062,0L41.062,-10.917L43.583,-10.917L43.583,-8.896C43.986,-9.59 44.569,-10.132 45.333,-10.521C46.097,-10.91 46.958,-11.104 47.917,-11.104C48.597,-11.104 49.153,-10.979 49.583,-10.729C50.014,-10.479 50.347,-10.153 50.583,-9.75C50.819,-9.347 50.983,-8.889 51.073,-8.375C51.163,-7.861 51.208,-7.34 51.208,-6.812L51.208,0Z" style="fill:rgb(63,81,181);fill-rule:nonzero;"/>
            <path d="M55.729,0L55.729,-10.917L58.521,-10.917L58.521,0L55.729,0ZM55.729,-12.437L55.729,-15.208L58.521,-15.208L58.521,-12.437L55.729,-12.437Z" style="fill:rgb(63,81,181);fill-rule:nonzero;"/>
            <path d="M69.667,-0.562C69.292,-0.396 68.833,-0.229 68.292,-0.062C67.75,0.104 67.18,0.187 66.583,0.187C66.194,0.187 65.83,0.139 65.489,0.042C65.149,-0.056 64.851,-0.212 64.594,-0.427C64.337,-0.642 64.132,-0.92 63.979,-1.26C63.826,-1.601 63.75,-2.014 63.75,-2.5L63.75,-8.771L62.312,-8.771L62.312,-10.917L63.75,-10.917L63.75,-14.458L66.542,-14.458L66.542,-10.917L68.833,-10.917L68.833,-8.771L66.542,-8.771L66.542,-3.437C66.542,-3.049 66.642,-2.774 66.844,-2.615C67.045,-2.455 67.292,-2.375 67.583,-2.375C67.875,-2.375 68.16,-2.424 68.437,-2.521C68.715,-2.618 68.937,-2.701 69.104,-2.771L69.667,-0.562Z" style="fill:rgb(63,81,181);fill-rule:nonzero;"/>
            <path d="M73.437,2.125C73.673,2.194 73.903,2.247 74.125,2.281C74.347,2.316 74.535,2.333 74.687,2.333C74.868,2.333 75.035,2.299 75.187,2.229C75.34,2.16 75.479,2.038 75.604,1.865C75.729,1.691 75.854,1.451 75.979,1.146C76.104,0.84 76.236,0.458 76.375,0L72.062,-10.917L74.937,-10.917L77.896,-2.417L80.521,-10.917L83.146,-10.917L78.562,2.167C78.298,2.931 77.847,3.556 77.208,4.042C76.569,4.528 75.778,4.771 74.833,4.771C74.611,4.771 74.385,4.753 74.156,4.719C73.927,4.684 73.687,4.625 73.437,4.542L73.437,2.125Z" style="fill:rgb(63,81,181);fill-rule:nonzero;"/>
        </g>
        <g id="_-" serif:id="" transform="matrix(1.12627,0,0,1.14933,23.6801,54.7635)">
            <path d="M11.667,-14.167L10,-12.5L15.02,-7.52L11.667,-4.167L3.333,-12.5L11.667,-20.833L12.917,-19.583L14.583,-21.25L11.667,-24.167L0,-12.5L11.667,-0.833L18.333,-7.5L11.667,-14.167ZM21.667,-24.167L15,-17.5L21.667,-10.833L23.333,-12.5L18.314,-17.48L21.667,-20.833L30,-12.5L21.667,-4.167L20.417,-5.417L18.75,-3.75L21.667,-0.833L33.333,-12.5L21.667,-24.167Z" style="fill:rgb(63,81,181);fill-rule:nonzero;"/>
        </g>
    </g>
</svg>
