<?xml version="1.0" encoding="UTF-8" standalone="no"?>
<!DOCTYPE svg PUBLIC "-//W3C//DTD SVG 1.1//EN" "http://www.w3.org/Graphics/SVG/1.1/DTD/svg11.dtd">
<svg width="100%" height="100%" viewBox="0 0 24 25" version="1.1" xmlns="http://www.w3.org/2000/svg" xmlns:xlink="http://www.w3.org/1999/xlink" xml:space="preserve" xmlns:serif="http://www.serif.com/" style="fill-rule:evenodd;clip-rule:evenodd;stroke-linejoin:round;stroke-miterlimit:1.41421;">
    <g transform="matrix(1,0,0,1,-1305.89,-28.5714)">
        <path id="_-" serif:id="" d="M1317.5,52.455C1316.82,52.455 1316.24,52.216 1315.76,51.737C1315.28,51.258 1315.04,50.679 1315.04,50C1315.04,49.851 1315.12,49.777 1315.27,49.777C1315.42,49.777 1315.49,49.851 1315.49,50C1315.49,50.549 1315.69,51.021 1316.08,51.416C1316.48,51.811 1316.95,52.009 1317.5,52.009C1317.65,52.009 1317.72,52.083 1317.72,52.232C1317.72,52.381 1317.65,52.455 1317.5,52.455L1317.5,52.455ZM1327.84,46.987C1327.46,46.559 1327.06,46.003 1326.65,45.319C1326.24,44.636 1325.9,43.899 1325.61,43.108C1325.33,42.318 1325.1,41.36 1324.91,40.234C1324.73,39.109 1324.64,37.9 1324.64,36.607C1324.64,35.193 1324.1,33.88 1323.01,32.666C1321.92,31.452 1320.49,30.715 1318.73,30.455C1318.8,30.278 1318.84,30.097 1318.84,29.911C1318.84,29.539 1318.71,29.223 1318.45,28.962C1318.19,28.702 1317.87,28.571 1317.5,28.571C1317.13,28.571 1316.81,28.702 1316.55,28.962C1316.29,29.223 1316.16,29.539 1316.16,29.911C1316.16,30.097 1316.2,30.278 1316.27,30.455C1314.51,30.715 1313.08,31.452 1311.99,32.666C1310.9,33.88 1310.36,35.193 1310.36,36.607C1310.36,37.9 1310.27,39.109 1310.09,40.234C1309.9,41.36 1309.67,42.318 1309.39,43.108C1309.1,43.899 1308.76,44.636 1308.35,45.319C1307.94,46.003 1307.54,46.559 1307.16,46.987C1306.78,47.414 1306.36,47.824 1305.89,48.214C1305.89,48.698 1306.07,49.116 1306.42,49.47C1306.78,49.823 1307.19,50 1307.68,50L1313.93,50C1313.93,50.986 1314.28,51.827 1314.98,52.525C1315.67,53.223 1316.51,53.571 1317.5,53.571C1318.49,53.571 1319.33,53.223 1320.03,52.525C1320.72,51.827 1321.07,50.986 1321.07,50L1327.32,50C1327.81,50 1328.22,49.823 1328.58,49.47C1328.93,49.116 1329.11,48.698 1329.11,48.214C1328.64,47.824 1328.22,47.414 1327.84,46.987Z" style="fill:white;fill-rule:nonzero;"/>
    </g>
</svg>
