<?xml version="1.0" encoding="UTF-8" standalone="no"?>
<!DOCTYPE svg PUBLIC "-//W3C//DTD SVG 1.1//EN" "http://www.w3.org/Graphics/SVG/1.1/DTD/svg11.dtd">
<svg width="100%" height="100%" viewBox="0 0 24 24" version="1.1" xmlns="http://www.w3.org/2000/svg" xmlns:xlink="http://www.w3.org/1999/xlink" xml:space="preserve" xmlns:serif="http://www.serif.com/" style="fill-rule:evenodd;clip-rule:evenodd;stroke-linejoin:round;stroke-miterlimit:1.41421;">
    <g id="Forma-1" serif:id="Forma 1" transform="matrix(1,0,0,1,-19,-575)">
        <path d="M32.167,578L32.167,582.5C32.167,583.12 32.69,583.625 33.333,583.625L38,583.625L38,594.875C38,595.496 37.477,596 36.833,596L25.167,596C24.524,596 24,595.496 24,594.875L24,579.125C24,578.509 24.518,578.006 25.167,578L32.167,578ZM28.667,593.75L28.667,590.375L26.333,590.375L26.333,593.75L28.667,593.75ZM32.167,593.75L32.167,588.125L29.833,588.125L29.833,593.75L32.167,593.75ZM35.667,593.75L35.667,585.875L33.333,585.875L33.333,593.75L35.667,593.75ZM33.333,578L33.333,582.5L38,582.5L33.333,578Z" style="fill:rgb(63,81,181);"/>
    </g>
</svg>
