<?xml version="1.0" encoding="UTF-8" standalone="no"?>
<!DOCTYPE svg PUBLIC "-//W3C//DTD SVG 1.1//EN" "http://www.w3.org/Graphics/SVG/1.1/DTD/svg11.dtd">
<svg width="100%" height="100%" viewBox="0 0 21 14" version="1.1" xmlns="http://www.w3.org/2000/svg" xmlns:xlink="http://www.w3.org/1999/xlink" xml:space="preserve" xmlns:serif="http://www.serif.com/" style="fill-rule:evenodd;clip-rule:evenodd;stroke-linejoin:round;stroke-miterlimit:1.41421;">
    <g id="Forma-1" serif:id="Forma 1" transform="matrix(1,0,0,1,-854.5,-1455.49)">
        <path d="M868.477,1456.17C868.195,1455.91 867.751,1455.91 867.469,1456.17C867.187,1456.43 867.187,1456.85 867.469,1457.1L872.57,1461.83L855.715,1461.83C855.322,1461.83 855,1462.12 855,1462.49C855,1462.85 855.322,1463.15 855.715,1463.15L872.57,1463.15L867.469,1467.87C867.187,1468.13 867.187,1468.55 867.469,1468.81C867.751,1469.07 868.195,1469.07 868.477,1468.81L874.797,1462.95C875.069,1462.7 875.069,1462.28 874.797,1462.02L868.477,1456.17Z" style="fill:rgb(91,91,91);fill-rule:nonzero;"/>
    </g>
</svg>
