<?xml version="1.0" encoding="UTF-8" standalone="no"?>
<!DOCTYPE svg PUBLIC "-//W3C//DTD SVG 1.1//EN" "http://www.w3.org/Graphics/SVG/1.1/DTD/svg11.dtd">
<svg width="100%" height="100%" viewBox="0 0 24 24" version="1.1" xmlns="http://www.w3.org/2000/svg" xmlns:xlink="http://www.w3.org/1999/xlink" xml:space="preserve" xmlns:serif="http://www.serif.com/" style="fill-rule:evenodd;clip-rule:evenodd;stroke-linejoin:round;stroke-miterlimit:1.41421;">
    <g id="_-" serif:id="" transform="matrix(0.958894,-6.93889e-18,6.93889e-18,0.958894,-1379.94,-26.3213)">
        <path d="M1449.82,44.428C1448.1,44.428 1446.63,43.817 1445.41,42.594C1444.18,41.371 1443.57,39.899 1443.57,38.178C1443.57,36.458 1444.18,34.986 1445.41,33.763C1446.63,32.54 1448.1,31.929 1449.82,31.929C1451.54,31.929 1453.01,32.54 1454.24,33.763C1455.46,34.986 1456.07,36.458 1456.07,38.178C1456.07,39.899 1455.46,41.371 1454.24,42.594C1453.01,43.817 1451.54,44.428 1449.82,44.428ZM1462.7,48.53L1457.91,43.745C1459.07,42.08 1459.64,40.225 1459.64,38.178C1459.64,36.849 1459.38,35.577 1458.87,34.363C1458.35,33.149 1457.65,32.103 1456.78,31.224C1455.9,30.345 1454.85,29.648 1453.64,29.131C1452.42,28.615 1451.15,28.357 1449.82,28.357C1448.49,28.357 1447.22,28.615 1446.01,29.131C1444.79,29.648 1443.75,30.345 1442.87,31.224C1441.99,32.103 1441.29,33.149 1440.77,34.363C1440.26,35.577 1440,36.849 1440,38.178C1440,39.509 1440.26,40.78 1440.77,41.994C1441.29,43.208 1441.99,44.254 1442.87,45.133C1443.75,46.012 1444.79,46.71 1446.01,47.226C1447.22,47.742 1448.49,48 1449.82,48C1451.87,48 1453.72,47.423 1455.39,46.27L1460.17,51.041C1460.51,51.395 1460.93,51.571 1461.43,51.571C1461.91,51.571 1462.33,51.395 1462.68,51.041C1463.04,50.688 1463.21,50.269 1463.21,49.786C1463.21,49.293 1463.04,48.874 1462.7,48.53Z" style="fill:rgb(83,83,83);fill-rule:nonzero;"/>
    </g>
</svg>
