<?xml version="1.0" encoding="UTF-8" standalone="no"?>
<!DOCTYPE svg PUBLIC "-//W3C//DTD SVG 1.1//EN" "http://www.w3.org/Graphics/SVG/1.1/DTD/svg11.dtd">
<svg width="100%" height="100%" viewBox="0 0 24 24" version="1.1" xmlns="http://www.w3.org/2000/svg" xmlns:xlink="http://www.w3.org/1999/xlink" xml:space="preserve" xmlns:serif="http://www.serif.com/" style="fill-rule:evenodd;clip-rule:evenodd;stroke-linejoin:round;stroke-miterlimit:1.41421;">
    <g id="Shape-1" serif:id="Shape 1" transform="matrix(1,0,0,1,-18,-453)">
        <path d="M31.466,465.142L30.65,465.609L30.65,474L38,469.806L38,461.415L31.466,465.142ZM26.142,465.87L24.789,465.183L24.789,463.047L22,461.46L22,469.791L29.297,473.955L29.297,465.624L26.142,463.827L26.142,465.87ZM37.52,460.309L34.263,458.476L26.712,462.785L27.143,463.006L29.97,464.619L32.781,463.017L37.52,460.309ZM32.796,457.617L29.97,456L22.416,460.309L25.246,461.926L32.796,457.617Z" style="fill:rgb(105,107,111);"/>
    </g>
</svg>
