<?xml version="1.0" encoding="UTF-8" standalone="no"?>
<!DOCTYPE svg PUBLIC "-//W3C//DTD SVG 1.1//EN" "http://www.w3.org/Graphics/SVG/1.1/DTD/svg11.dtd">
<svg width="100%" height="100%" viewBox="0 0 64 64" version="1.1" xmlns="http://www.w3.org/2000/svg" xmlns:xlink="http://www.w3.org/1999/xlink" xml:space="preserve" xmlns:serif="http://www.serif.com/" style="fill-rule:evenodd;clip-rule:evenodd;stroke-linejoin:round;stroke-miterlimit:1.41421;">
    <g id="clipboard" transform="matrix(1,0,0,1,-1459,-321)">
        <path d="M1500.23,365.5L1481.77,365.5C1480.92,365.5 1480.23,366.2 1480.23,367.062C1480.23,367.925 1480.92,368.625 1481.77,368.625L1500.23,368.625C1501.08,368.625 1501.77,367.925 1501.77,367.062C1501.77,366.2 1501.08,365.5 1500.23,365.5ZM1506.38,335.812L1503.31,335.812C1503.31,334.087 1501.93,332.687 1500.23,332.687L1498.69,332.687L1498.69,331.125C1498.69,329.399 1497.32,328 1495.62,328L1486.38,328C1484.68,328 1483.31,329.399 1483.31,331.125L1483.31,332.687L1481.77,332.687C1480.07,332.687 1478.69,334.087 1478.69,335.812L1475.62,335.812C1473.07,335.812 1471,337.911 1471,340.5L1471,373.312C1471,375.901 1473.07,378 1475.62,378L1506.38,378C1508.93,378 1511,375.901 1511,373.312L1511,340.5C1511,337.911 1508.93,335.812 1506.38,335.812ZM1484.08,335.812L1486.38,335.812L1486.38,334.25C1486.38,332.524 1487.76,331.125 1489.46,331.125L1492.54,331.125C1494.24,331.125 1495.62,332.524 1495.62,334.25L1495.62,335.812L1497.92,335.812C1499.2,335.812 1500.23,336.862 1500.23,338.156C1500.23,339.451 1499.2,340.5 1497.92,340.5L1484.08,340.5C1482.8,340.5 1481.77,339.451 1481.77,338.156C1481.77,336.862 1482.8,335.812 1484.08,335.812ZM1507.92,371.75C1507.92,373.476 1506.55,374.875 1504.85,374.875L1477.15,374.875C1475.45,374.875 1474.08,373.476 1474.08,371.75L1474.08,342.062C1474.08,340.337 1475.45,338.937 1477.15,338.937L1478.69,338.937L1478.69,340.5C1478.69,342.226 1480.07,343.625 1481.77,343.625L1500.23,343.625C1502.1,343.625 1502.77,341.999 1503.24,340.455C1503.41,339.915 1503.31,339.385 1503.31,338.937L1504.85,338.937C1506.55,338.937 1507.92,340.337 1507.92,342.062L1507.92,371.75ZM1500.23,357.687L1481.77,357.687C1480.92,357.687 1480.23,358.387 1480.23,359.25C1480.23,360.113 1480.92,360.812 1481.77,360.812L1500.23,360.812C1501.08,360.812 1501.77,360.113 1501.77,359.25C1501.77,358.387 1501.08,357.687 1500.23,357.687ZM1500.23,349.875L1481.77,349.875C1480.92,349.875 1480.23,350.574 1480.23,351.437C1480.23,352.3 1480.92,353 1481.77,353L1500.23,353C1501.08,353 1501.77,352.3 1501.77,351.437C1501.77,350.574 1501.08,349.875 1500.23,349.875Z" style="fill:rgb(40,40,40);fill-opacity:0.101961;fill-rule:nonzero;"/>
    </g>
</svg>
