<?xml version="1.0" encoding="UTF-8" standalone="no"?>
<!DOCTYPE svg PUBLIC "-//W3C//DTD SVG 1.1//EN" "http://www.w3.org/Graphics/SVG/1.1/DTD/svg11.dtd">
<svg width="100%" height="100%" viewBox="0 0 64 64" version="1.1" xmlns="http://www.w3.org/2000/svg" xmlns:xlink="http://www.w3.org/1999/xlink" xml:space="preserve" xmlns:serif="http://www.serif.com/" style="fill-rule:evenodd;clip-rule:evenodd;stroke-linejoin:round;stroke-miterlimit:1.41421;">
    <g id="Forma-1" serif:id="Forma 1" transform="matrix(1,0,0,1,-821.5,-324)">
        <path d="M876.964,346.263C874.276,340.113 869.706,335.641 863.385,332.997C860.226,331.675 856.916,331 853.458,331C850.001,331 846.715,331.669 843.559,332.997C837.291,335.634 832.701,340.103 830.008,346.263C828.658,349.348 828,352.581 828,355.972C828,359.364 828.658,362.624 830.008,365.71C832.701,371.869 837.291,376.365 843.559,379.004C846.716,380.332 850.001,381 853.458,381C856.915,381 860.226,380.325 863.385,379.004C869.706,376.359 874.275,371.859 876.964,365.71C878.318,362.614 879,359.364 879,355.972C879,352.581 878.319,349.359 876.964,346.263ZM872.894,367.023C870.892,370.391 868.15,373.062 864.696,375.037C861.263,377.001 857.501,377.991 853.459,377.991C850.419,377.991 847.519,377.417 844.759,376.241C841.998,375.065 839.614,373.519 837.62,371.564C835.626,369.608 834.039,367.247 832.852,364.534C831.669,361.831 831.096,358.954 831.096,355.972C831.096,352.006 832.089,348.335 834.08,344.977C836.077,341.607 838.82,338.932 842.249,336.963C845.678,334.994 849.415,334.009 853.458,334.009C857.501,334.009 861.262,334.999 864.695,336.963C868.149,338.938 870.885,341.613 872.893,344.977C874.901,348.341 875.904,352.006 875.904,355.972C875.904,359.939 874.907,363.635 872.894,367.023ZM855.075,355.754L855.075,341.585C855.075,340.737 854.322,340.053 853.458,340.053C852.65,340.053 851.924,340.737 851.924,341.585L851.924,355.972C851.924,356 851.98,356.11 851.98,356.191C851.924,356.684 852.064,357.094 852.399,357.422L860.736,365.601C861.294,366.148 862.326,366.148 862.883,365.601C863.524,364.972 863.482,364.059 862.883,363.467L855.075,355.754Z" style="fill-opacity:0.101961;"/>
    </g>
</svg>
