<?xml version="1.0" encoding="UTF-8" standalone="no"?>
<!DOCTYPE svg PUBLIC "-//W3C//DTD SVG 1.1//EN" "http://www.w3.org/Graphics/SVG/1.1/DTD/svg11.dtd">
<svg width="100%" height="100%" viewBox="0 0 64 64" version="1.1" xmlns="http://www.w3.org/2000/svg" xmlns:xlink="http://www.w3.org/1999/xlink" xml:space="preserve" xmlns:serif="http://www.serif.com/" style="fill-rule:evenodd;clip-rule:evenodd;stroke-linejoin:round;stroke-miterlimit:1.41421;">
    <g id="lock" transform="matrix(1,0,0,1,-1143,-321)">
        <path d="M1175.71,328.016C1182.33,328.334 1187.73,333.348 1188.75,339.846L1188.84,340.5L1185.72,340.5C1184.99,335.367 1180.76,331.381 1175.55,331.137L1175.04,331.125C1169.08,331.125 1164.24,336.021 1164.24,342.062L1164.24,346.75L1190.38,346.75C1192.94,346.756 1195,348.852 1195,351.437L1195,373.312C1195,375.894 1192.94,377.988 1190.38,378L1159.62,378C1157.07,378 1155,375.901 1155,373.312L1155,351.437C1155,348.849 1157.07,346.75 1159.62,346.75L1161.15,346.75L1161.15,342.062C1161.15,334.539 1166.99,328.396 1174.33,328.019L1175.04,328L1175.71,328.016ZM1188.85,374.875C1190.55,374.869 1191.92,373.472 1191.92,371.75L1191.92,353C1191.92,351.274 1190.55,349.875 1188.85,349.875L1161.15,349.875C1159.45,349.875 1158.08,351.274 1158.08,353L1158.08,371.75C1158.08,373.476 1159.45,374.875 1161.15,374.875L1188.85,374.875ZM1172.58,362.355L1169.36,359.082C1168.68,358.396 1168.68,357.283 1169.36,356.597C1170.04,355.911 1171.13,355.911 1171.81,356.597L1175.03,359.871L1178.21,356.644C1178.88,355.961 1179.97,355.961 1180.64,356.644C1181.32,357.327 1181.32,358.435 1180.64,359.119L1177.47,362.346L1180.69,365.619C1181.37,366.305 1181.37,367.418 1180.69,368.104C1180.01,368.79 1178.92,368.79 1178.24,368.104L1175.02,364.83L1171.79,368.106C1171.12,368.789 1170.03,368.789 1169.36,368.106C1168.68,367.423 1168.68,366.315 1169.36,365.631L1172.58,362.355Z" style="fill:rgb(40,40,40);fill-opacity:0.101961;"/>
    </g>
</svg>
