<?xml version="1.0" encoding="UTF-8" standalone="no"?>
<!DOCTYPE svg PUBLIC "-//W3C//DTD SVG 1.1//EN" "http://www.w3.org/Graphics/SVG/1.1/DTD/svg11.dtd">
<svg width="100%" height="100%" viewBox="0 0 64 64" version="1.1" xmlns="http://www.w3.org/2000/svg" xmlns:xlink="http://www.w3.org/1999/xlink" xml:space="preserve" xmlns:serif="http://www.serif.com/" style="fill-rule:evenodd;clip-rule:evenodd;stroke-linejoin:round;stroke-miterlimit:1.41421;">
    <g id="Forma-1" serif:id="Forma 1" transform="matrix(0.999966,0,0,1.00006,-502.482,-325.022)">
        <path d="M564.001,380.387L564.001,381.193C564.001,381.638 563.639,381.999 563.192,381.999L507.424,381.999C506.084,381.999 504.999,380.916 504.999,379.58L504.999,332.808C504.999,332.363 505.361,332.002 505.807,332.002L506.615,332.002C507.061,332.002 507.424,332.363 507.424,332.808L507.424,378.774C507.424,379.219 507.786,379.58 508.232,379.58L563.192,379.58C563.639,379.58 564.001,379.942 564.001,380.387ZM513.081,377.16L522.78,377.16C523.226,377.16 523.589,376.799 523.589,376.354L523.589,344.098C523.589,343.653 523.226,343.291 522.78,343.291L513.081,343.291C512.635,343.291 512.273,343.653 512.273,344.098L512.273,376.354C512.273,376.799 512.635,377.16 513.081,377.16ZM528.438,377.16L538.137,377.16C538.583,377.16 538.945,376.799 538.945,376.354L538.945,337.647C538.945,337.201 538.583,336.84 538.137,336.84L528.438,336.84C527.992,336.84 527.63,337.201 527.63,337.647L527.63,376.354C527.63,376.799 527.992,377.16 528.438,377.16ZM543.795,377.16L553.493,377.16C553.939,377.16 554.301,376.799 554.301,376.354L554.301,356.194C554.301,355.749 553.939,355.388 553.493,355.388L543.795,355.388C543.349,355.388 542.987,355.749 542.987,356.194L542.987,376.354C542.987,376.799 543.349,377.16 543.795,377.16Z" style="fill-opacity:0.101961;fill-rule:nonzero;"/>
    </g>
</svg>
