<?xml version="1.0" encoding="UTF-8" standalone="no"?>
<!DOCTYPE svg PUBLIC "-//W3C//DTD SVG 1.1//EN" "http://www.w3.org/Graphics/SVG/1.1/DTD/svg11.dtd">
<svg width="100%" height="100%" viewBox="0 0 24 24" version="1.1" xmlns="http://www.w3.org/2000/svg" xmlns:xlink="http://www.w3.org/1999/xlink" xml:space="preserve" xmlns:serif="http://www.serif.com/" style="fill-rule:evenodd;clip-rule:evenodd;stroke-linejoin:round;stroke-miterlimit:1.41421;">
    <g id="Forma-1" serif:id="Forma 1" transform="matrix(1,0,0,1,-1375,-95)">
        <path d="M1393.36,109.636C1392.38,108.655 1391.22,107.93 1389.94,107.49C1391.31,106.551 1392.2,104.98 1392.2,103.203C1392.2,100.334 1389.87,98 1387,98C1384.13,98 1381.8,100.334 1381.8,103.203C1381.8,104.98 1382.69,106.551 1384.06,107.49C1382.78,107.93 1381.62,108.655 1380.64,109.636C1378.94,111.336 1378,113.596 1378,116L1379.41,116C1379.41,111.812 1382.81,108.406 1387,108.406C1391.19,108.406 1394.59,111.812 1394.59,116L1396,116C1396,113.596 1395.06,111.336 1393.36,109.636ZM1387,107C1384.91,107 1383.2,105.296 1383.2,103.203C1383.2,101.109 1384.91,99.406 1387,99.406C1389.09,99.406 1390.8,101.109 1390.8,103.203C1390.8,105.296 1389.09,107 1387,107Z" style="fill:rgb(136,136,136);fill-rule:nonzero;"/>
    </g>
</svg>
